<svg
    width="100%"
    height="100%"
    viewBox="0 0 386 286"
    margin="1rem"
    fill="none"
    xmlns="http://www.w3.org/2000/svg"
  >
    <path
      d="M201.477 273.836C244.109 273.836 278.668 264.465 278.668 252.906C278.668 241.348 244.109 231.977 201.477 231.977C158.846 231.977 124.287 241.348 124.287 252.906C124.287 264.465 158.846 273.836 201.477 273.836Z"
      fill="#E6E7E8"
    />
    <path
      d="M310.113 206.562C310.113 206.562 239.063 199.406 230.456 200.167C221.849 200.928 212.511 217.909 217.037 220.264C221.564 222.619 226.406 207.993 231.897 206.968C237.388 205.942 310.113 216.204 310.113 216.204V206.562Z"
      fill="#231F20"
    />
    <path
      d="M218.073 221.005C217.63 221.002 217.194 220.891 216.804 220.68C215.901 220.203 214.936 219.016 215.525 216.042C216.733 209.952 223.645 200.218 230.415 199.629C238.972 198.888 307.261 205.719 310.164 206.034C310.288 206.044 310.405 206.101 310.489 206.193C310.574 206.285 310.621 206.406 310.62 206.531V216.174C310.621 216.247 310.606 216.319 310.576 216.385C310.546 216.452 310.503 216.511 310.448 216.559C310.392 216.607 310.328 216.642 310.258 216.663C310.188 216.684 310.114 216.69 310.042 216.681C309.321 216.569 237.327 206.44 231.988 207.434C229.623 207.871 227.279 211.22 225.005 214.458C222.732 217.696 220.407 221.005 218.073 221.005ZM232.212 200.583C231.501 200.583 230.923 200.583 230.507 200.634C224.417 201.172 217.667 210.459 216.52 216.235C216.307 217.31 216.124 219.188 217.271 219.787C219.301 220.802 221.666 217.452 224.173 213.88C226.568 210.479 229.035 206.957 231.806 206.44C237.114 205.425 302.267 214.56 309.616 215.575V206.968C303.83 206.45 245.224 200.614 232.212 200.614V200.583Z"
      fill="#231F20"
    />
    <path
      d="M197.387 268.954C173.281 268.954 154.402 261.707 154.402 252.46L138.223 99.6009C138.208 99.4677 138.247 99.3343 138.331 99.2297C138.415 99.1252 138.536 99.0579 138.669 99.0426C138.802 99.0283 138.936 99.0673 139.04 99.1509C139.145 99.2346 139.212 99.3562 139.228 99.4892L155.468 252.409C155.468 260.996 174.296 267.939 197.438 267.939C220.58 267.939 239.408 260.996 239.408 252.46L255.648 99.4892C255.663 99.3546 255.731 99.2314 255.836 99.1467C255.942 99.062 256.077 99.0227 256.211 99.0375C256.346 99.0523 256.469 99.12 256.554 99.2257C256.639 99.3313 256.678 99.4663 256.663 99.6009L240.372 252.47C240.372 261.706 221.493 268.954 197.387 268.954Z"
      fill="#231F20"
    />
    <path
      d="M197.387 119.789C164.765 119.789 138.213 110.654 138.213 99.4892C138.213 88.3242 164.765 79.1892 197.387 79.1892C230.009 79.1892 256.562 88.3242 256.562 99.4892C256.562 110.654 230.019 119.789 197.387 119.789ZM197.387 80.3057C165.323 80.3057 139.228 88.9332 139.228 99.5907C139.228 110.248 165.323 118.876 197.387 118.876C229.451 118.876 255.547 110.248 255.547 99.5907C255.547 88.9332 229.451 80.3057 197.387 80.3057Z"
      fill="#231F20"
    />
    <path
      d="M248.025 152.32L235.48 254.084C235.48 254.084 222.691 265.756 194.504 264.549C166.318 263.341 158.827 253.109 158.827 253.109L146.739 152.32H248.025Z"
      fill="#C4FC68"
    />
    <path
      d="M198.453 265.137C197.154 265.137 195.814 265.137 194.393 265.056C166.287 263.848 158.645 253.83 158.33 253.404C158.279 253.336 158.247 253.255 158.238 253.17L146.16 152.381C146.152 152.31 146.159 152.238 146.18 152.17C146.201 152.102 146.235 152.039 146.282 151.985C146.33 151.93 146.389 151.886 146.456 151.857C146.522 151.827 146.595 151.812 146.667 151.812H248.005C248.077 151.812 248.147 151.827 248.212 151.857C248.277 151.887 248.335 151.93 248.381 151.985C248.428 152.039 248.465 152.101 248.487 152.169C248.51 152.237 248.519 152.309 248.513 152.381L235.927 254.145C235.915 254.267 235.857 254.379 235.764 254.459C235.642 254.571 223.757 265.137 198.453 265.137ZM159.264 252.906C161.274 255.05 163.689 256.775 166.369 257.981C171.241 260.407 180.081 263.432 194.484 264.071C220.57 265.188 233.491 255.068 234.942 253.85L247.447 152.858H147.256L159.264 252.906Z"
      fill="#231F20"
    />
    <path
      d="M197.357 166.185C225.34 166.185 248.025 159.4 248.025 151.031C248.025 142.662 225.34 135.877 197.357 135.877C169.373 135.877 146.688 142.662 146.688 151.031C146.688 159.4 169.373 166.185 197.357 166.185Z"
      fill="#C4FC68"
    />
    <path
      d="M197.357 166.692C168.652 166.692 146.18 159.811 146.18 151.031C146.18 142.251 168.652 135.369 197.357 135.369C226.061 135.369 248.533 142.251 248.533 151.031C248.533 159.811 226.051 166.692 197.357 166.692ZM197.357 136.384C170.165 136.384 147.195 143.094 147.195 151.031C147.195 158.968 170.165 165.677 197.357 165.677C224.548 165.677 247.518 158.968 247.518 151.031C247.518 143.094 224.548 136.384 197.357 136.384Z"
      fill="#231F20"
    />
    <path
      d="M175.595 148.564L155.772 75.5352L152.301 77.89L171.586 149.549C171.586 149.549 173.088 151.031 175.595 148.564Z"
      fill="white"
    />
    <path
      d="M172.875 150.493C172.281 150.505 171.704 150.299 171.251 149.914C171.192 149.85 171.147 149.774 171.119 149.691L151.834 78.0321C151.804 77.9311 151.807 77.8231 151.844 77.7242C151.881 77.6254 151.948 77.5411 152.037 77.484L155.508 75.1191C155.573 75.072 155.649 75.0418 155.729 75.0312C155.809 75.0206 155.89 75.0298 155.965 75.0582C156.041 75.0863 156.11 75.1323 156.164 75.1924C156.219 75.2524 156.259 75.3247 156.28 75.4033L176.133 148.483C176.157 148.57 176.158 148.662 176.135 148.75C176.111 148.837 176.065 148.917 176.001 148.981C175.199 149.877 174.075 150.42 172.875 150.493ZM172.063 149.265C172.357 149.458 173.382 149.914 175.047 148.402L155.468 76.3371L152.889 78.1032L172.063 149.265Z"
      fill="#231F20"
    />
    <path
      d="M207.263 78.3265C195.519 56.2502 170.967 44.395 147.743 51.1651C124.52 57.9351 110.239 81.2091 112.218 106.127L207.263 78.3265Z"
      fill="white"
    />
    <path
      d="M112.249 106.635C112.147 106.634 112.048 106.602 111.965 106.543C111.904 106.5 111.854 106.444 111.817 106.379C111.78 106.314 111.758 106.242 111.751 106.168C109.721 80.6914 124.764 57.3566 147.601 50.6779C170.439 43.9992 195.712 55.5296 207.71 78.0829C207.742 78.1493 207.759 78.2221 207.759 78.296C207.759 78.3699 207.742 78.4427 207.71 78.5092C207.68 78.579 207.636 78.6415 207.58 78.6924C207.524 78.7433 207.457 78.7812 207.385 78.8035L112.381 106.604L112.249 106.635ZM160.817 49.7948C156.44 49.7913 152.086 50.4134 147.885 51.6421C125.698 58.1381 110.99 80.7015 112.716 105.437L206.512 78.0321C196.91 60.4218 179.026 49.805 160.817 49.805V49.7948Z"
      fill="#231F20"
    />
    <path
      d="M192.85 82.5387C182.588 60.0362 163.922 46.425 147.743 51.1651C131.564 55.9051 123.17 77.4231 126.662 101.915L192.85 82.5387Z"
      fill="#E6E7E8"
    />
    <path
      d="M126.662 102.423C126.565 102.422 126.469 102.394 126.388 102.341C126.326 102.302 126.274 102.249 126.234 102.188C126.194 102.127 126.167 102.058 126.154 101.986C122.531 76.5299 131.351 55.4382 147.601 50.6778C163.851 45.9175 182.649 58.9399 193.276 82.3357C193.306 82.4009 193.322 82.4719 193.322 82.5438C193.322 82.6156 193.306 82.6866 193.276 82.7519C193.245 82.8179 193.199 82.8765 193.143 82.9237C193.087 82.971 193.022 83.0058 192.952 83.0259L126.763 102.402L126.662 102.423ZM154.209 50.759C152.069 50.7553 149.94 51.0561 147.885 51.6522C132.508 56.1487 123.83 76.9663 127.078 101.235L192.15 82.1936C183.197 62.9695 168.084 50.759 154.209 50.759Z"
      fill="#231F20"
    />
    <path
      d="M174.255 87.9791C165.892 64.9183 147.743 51.1651 147.743 51.1651C147.743 51.1651 139.867 72.541 145.257 96.4645L174.255 87.9791Z"
      fill="white"
    />
    <path
      d="M145.257 96.972C145.167 96.9738 145.079 96.9491 145.003 96.901C144.943 96.8664 144.892 96.8196 144.851 96.7636C144.811 96.7076 144.783 96.6437 144.769 96.5762C139.4 72.815 147.175 51.2057 147.266 50.9925C147.294 50.9178 147.339 50.8506 147.397 50.796C147.455 50.7414 147.525 50.701 147.601 50.6779C147.677 50.658 147.756 50.655 147.834 50.669C147.911 50.6831 147.984 50.7138 148.048 50.7591C148.231 50.9012 166.419 64.8777 174.732 87.8066C174.754 87.8718 174.763 87.9409 174.758 88.0096C174.753 88.0784 174.735 88.1454 174.704 88.2069C174.672 88.2683 174.629 88.3229 174.577 88.3675C174.524 88.412 174.463 88.4456 174.397 88.4663L145.399 96.9517C145.353 96.969 145.305 96.9759 145.257 96.972ZM147.987 52.0075C146.749 55.7833 141.085 74.8755 145.642 95.8251L173.565 87.6442C166.135 67.5472 151.062 54.545 147.987 52.0075Z"
      fill="#231F20"
    />
    <path
      d="M300.988 37.7468L287.793 40.3756L275.745 42.771L264.509 45.004L252.39 47.44L235.044 50.9012L234.759 52.6165L232.841 64.086L230.283 79.311L228.436 90.3948L226.477 102.067L224.63 113.09L222.6 125.128L220.752 136.212L218.55 149.407C218.55 149.407 219.565 152.015 224.64 152.31C229.715 152.604 230.029 149.407 230.029 149.407L231.115 142.85L233.034 131.502L235.064 119.475L236.972 108.157L238.819 97.1243L240.738 85.736L242.94 72.541L245.031 60.1478V59.955L259.972 57.0724L270.782 55.0424L283.449 52.6064L293.985 50.5764L302.734 48.8915C302.734 48.8915 306.581 41.1369 300.988 37.7468Z"
      fill="white"
    />
    <path
      d="M225.33 152.848C225.117 152.848 224.883 152.848 224.65 152.848C219.372 152.533 218.184 149.742 218.134 149.63C218.114 149.54 218.114 149.446 218.134 149.356L234.546 50.7895C234.562 50.6883 234.609 50.5943 234.68 50.52C234.75 50.4458 234.842 50.3946 234.942 50.3734L300.917 37.2494C300.977 37.2337 301.04 37.231 301.101 37.2415C301.163 37.252 301.221 37.2754 301.272 37.3103C307.21 40.9034 303.302 49.0133 303.231 49.0945C303.198 49.1639 303.148 49.2241 303.086 49.2701C303.024 49.3161 302.952 49.3463 302.876 49.3584L245.488 60.4016L230.517 149.498C230.517 149.498 230.09 152.848 225.33 152.848ZM219.128 149.336C219.402 149.803 220.661 151.569 224.711 151.812C229.136 152.076 229.552 149.468 229.563 149.356L244.585 59.9042C244.6 59.7998 244.647 59.7026 244.719 59.6262C244.792 59.5498 244.887 59.4979 244.991 59.4779L302.399 48.455C302.957 47.1964 305.342 41.2079 300.887 38.305L235.48 51.3072L219.128 149.336Z"
      fill="#231F20"
    />
    <path
      d="M275.745 42.771C278.611 45.7967 281.193 49.0787 283.459 52.5759L293.995 50.5459C292.224 46.9921 290.153 43.5964 287.803 40.3959L275.745 42.771Z"
      fill="#D1D3D4"
    />
    <path
      d="M283.459 53.0834C283.374 53.0833 283.291 53.0618 283.216 53.021C283.142 52.9802 283.079 52.9214 283.033 52.85C280.788 49.376 278.226 46.1175 275.38 43.1161C275.316 43.052 275.271 42.9719 275.25 42.8843C275.228 42.7967 275.231 42.7049 275.258 42.6188C275.287 42.533 275.338 42.4561 275.405 42.3957C275.473 42.3352 275.555 42.2932 275.644 42.2737L287.702 39.8783C287.796 39.8603 287.893 39.8688 287.983 39.9028C288.072 39.9369 288.151 39.9951 288.209 40.0711C290.584 43.3005 292.672 46.7307 294.451 50.3226C294.485 50.393 294.503 50.4702 294.503 50.5484C294.503 50.6266 294.485 50.7038 294.451 50.7741C294.417 50.8444 294.367 50.9061 294.306 50.9544C294.244 51.0028 294.173 51.0367 294.096 51.0534L283.55 53.0834H283.459ZM276.74 43.0958C279.306 45.8661 281.635 48.8472 283.703 52.0075L293.244 50.1805C291.603 46.9537 289.709 43.8618 287.58 40.9339L276.74 43.0958Z"
      fill="#231F20"
    />
    <path
      d="M232.841 64.0556C236.503 66.5122 239.883 69.3646 242.92 72.5613L245.011 60.1681C241.934 57.2103 238.488 54.6619 234.759 52.5861L232.841 64.0556Z"
      fill="#D1D3D4"
    />
    <path
      d="M242.92 73.0688C242.782 73.0646 242.65 73.0063 242.555 72.9063C239.541 69.7369 236.188 66.9084 232.557 64.4717C232.476 64.4192 232.413 64.3439 232.375 64.2553C232.337 64.1668 232.326 64.069 232.344 63.9744L234.262 52.515C234.272 52.4342 234.302 52.3573 234.35 52.2916C234.398 52.2259 234.462 52.1735 234.536 52.1395C234.606 52.1021 234.685 52.0826 234.764 52.0826C234.844 52.0826 234.922 52.1021 234.993 52.1395C238.763 54.2319 242.247 56.8043 245.356 59.7926C245.416 59.8507 245.462 59.9226 245.488 60.0022C245.515 60.0817 245.522 60.1665 245.508 60.2493L243.478 72.6425C243.462 72.7362 243.42 72.8238 243.358 72.8954C243.295 72.967 243.214 73.02 243.123 73.0485L242.92 73.0688ZM233.389 63.8221C236.698 66.0657 239.778 68.629 242.585 71.4752L244.453 60.3102C241.63 57.6299 238.502 55.2896 235.135 53.3372L233.389 63.8221Z"
      fill="#231F20"
    />
    <path
      d="M228.436 90.3948C232.121 92.2486 235.596 94.4946 238.799 97.0938L240.717 85.7055C237.462 83.2299 233.967 81.0877 230.283 79.311L228.436 90.3948Z"
      fill="#D1D3D4"
    />
    <path
      d="M238.799 97.6013C238.684 97.6051 238.571 97.5652 238.484 97.4897C235.306 94.913 231.859 92.6873 228.202 90.8516C228.105 90.8031 228.026 90.7246 227.977 90.6278C227.927 90.5309 227.91 90.4208 227.928 90.3136L229.786 79.2298C229.799 79.1529 229.83 79.0802 229.876 79.0169C229.922 78.9536 229.981 78.9015 230.05 78.8644C230.119 78.8296 230.195 78.8115 230.273 78.8115C230.351 78.8115 230.427 78.8296 230.496 78.8644C234.216 80.6465 237.743 82.8062 241.022 85.3097C241.097 85.3644 241.156 85.4389 241.192 85.5248C241.228 85.6107 241.239 85.7048 241.225 85.7969L239.307 97.175C239.291 97.262 239.252 97.3434 239.195 97.411C239.138 97.4787 239.065 97.5303 238.982 97.5607C238.923 97.5841 238.862 97.5978 238.799 97.6013ZM228.994 90.07C232.335 91.7875 235.5 93.8272 238.444 96.16L240.169 85.9288C237.193 83.6861 234.016 81.7222 230.679 80.0621L228.994 90.07Z"
      fill="#231F20"
    />
    <path
      d="M224.63 113.09C228.306 114.844 231.795 116.966 235.044 119.424L236.952 108.107C233.693 105.7 230.181 103.658 226.477 102.017L224.63 113.09Z"
      fill="#D1D3D4"
    />
    <path
      d="M235.044 119.952C234.933 119.956 234.825 119.92 234.739 119.85C231.521 117.41 228.062 115.305 224.417 113.567C224.329 113.527 224.255 113.462 224.203 113.382C224.151 113.301 224.123 113.207 224.122 113.111C224.122 113.111 224.122 113.039 224.122 113.009L225.959 101.976C225.973 101.9 226.004 101.829 226.05 101.767C226.095 101.706 226.155 101.656 226.223 101.621C226.291 101.586 226.366 101.568 226.441 101.568C226.517 101.568 226.592 101.586 226.66 101.621C230.399 103.255 233.946 105.297 237.236 107.711C237.312 107.767 237.371 107.843 237.407 107.931C237.443 108.019 237.454 108.115 237.439 108.208L235.541 119.505C235.528 119.593 235.492 119.675 235.436 119.745C235.381 119.814 235.309 119.868 235.226 119.901C235.169 119.928 235.107 119.945 235.044 119.952ZM225.198 112.847C228.527 114.459 231.701 116.376 234.678 118.571L236.393 108.421C233.417 106.246 230.227 104.379 226.873 102.849L225.198 112.847Z"
      fill="#231F20"
    />
    <path
      d="M220.762 136.232C224.436 138.069 227.906 140.287 231.115 142.85L233.034 131.502C229.789 129.037 226.296 126.917 222.61 125.179L220.762 136.232Z"
      fill="#D1D3D4"
    />
    <path
      d="M231.115 143.347C230.998 143.349 230.883 143.31 230.791 143.236C227.615 140.691 224.175 138.496 220.529 136.689C220.435 136.637 220.358 136.558 220.309 136.462C220.261 136.366 220.242 136.258 220.255 136.151L222.112 125.067C222.123 124.989 222.152 124.915 222.199 124.851C222.245 124.788 222.306 124.736 222.376 124.702C222.445 124.664 222.522 124.645 222.6 124.645C222.678 124.645 222.754 124.664 222.823 124.702C226.543 126.45 230.068 128.586 233.338 131.076C233.402 131.123 233.454 131.184 233.489 131.254C233.524 131.325 233.542 131.403 233.541 131.482L231.613 142.941C231.598 143.027 231.561 143.108 231.506 143.175C231.451 143.243 231.379 143.295 231.298 143.327L231.115 143.347ZM221.321 135.948C224.647 137.634 227.807 139.629 230.76 141.906L232.486 131.695C229.513 129.469 226.339 127.525 223.006 125.889L221.321 135.948Z"
      fill="#231F20"
    />
    <path
      d="M252.39 47.44C255.174 50.4607 257.713 53.6986 259.982 57.1231L270.792 55.0931C269.037 51.5559 266.932 48.2032 264.509 45.0852L252.39 47.44Z"
      fill="#D1D3D4"
    />
    <path
      d="M259.982 57.59C259.898 57.5901 259.816 57.5698 259.741 57.5309C259.667 57.492 259.603 57.4357 259.556 57.3667C257.309 53.9589 254.787 50.7407 252.014 47.7445C251.954 47.6783 251.913 47.5977 251.893 47.5105C251.873 47.4234 251.877 47.3327 251.903 47.2472C251.932 47.1614 251.983 47.0845 252.05 47.0241C252.118 46.9637 252.2 46.9216 252.288 46.9021L264.407 44.4965C264.499 44.477 264.595 44.4838 264.683 44.5161C264.771 44.5485 264.848 44.605 264.905 44.6792C267.349 47.8231 269.474 51.2029 271.249 54.7683C271.283 54.8387 271.3 54.9159 271.3 54.9941C271.3 55.0723 271.282 55.1495 271.248 55.2198C271.214 55.2901 271.164 55.3518 271.103 55.4002C271.041 55.4485 270.97 55.4824 270.893 55.4991L260.084 57.5291L259.982 57.59ZM253.364 47.7242C255.864 50.5033 258.157 53.4615 260.226 56.575L269.99 54.6364C268.366 51.4413 266.45 48.4036 264.265 45.5623L253.364 47.7242Z"
      fill="#231F20"
    />
    <path
      d="M197.387 119.789C164.755 119.789 138.213 110.654 138.213 99.5501C138.213 99.4155 138.266 99.2864 138.361 99.1913C138.456 99.0961 138.585 99.0426 138.72 99.0426C138.855 99.0426 138.984 99.0961 139.079 99.1913C139.174 99.2864 139.228 99.4155 139.228 99.5501C139.228 110.147 165.313 118.774 197.387 118.774C229.461 118.774 255.547 110.147 255.547 99.5501C255.547 99.4155 255.6 99.2864 255.695 99.1913C255.79 99.0961 255.919 99.0426 256.054 99.0426C256.189 99.0426 256.318 99.0961 256.413 99.1913C256.508 99.2864 256.562 99.4155 256.562 99.5501C256.562 110.898 230.567 119.789 197.387 119.789Z"
      fill="#231F20"
    />
    <path
      d="M209.892 188.018C206.552 188.018 206.552 193.204 209.892 193.204C213.231 193.204 213.231 188.018 209.892 188.018Z"
      fill="white"
    />
    <path
      d="M216.195 235.357L215.951 234.87C215.409 234.021 214.587 233.389 213.627 233.084C213.124 232.926 212.589 232.901 212.074 233.012C211.558 233.032 211.057 233.19 210.623 233.469L209.841 234.078C209.361 234.553 209.011 235.144 208.826 235.794C208.826 236.139 208.735 236.484 208.694 236.809C208.69 237.5 208.872 238.181 209.222 238.778L209.466 239.255C209.702 239.702 210.052 240.08 210.481 240.351C210.85 240.695 211.306 240.934 211.8 241.041C212.828 241.282 213.909 241.145 214.845 240.655L215.627 240.046C216.107 239.571 216.456 238.981 216.642 238.331C216.642 237.986 216.733 237.641 216.774 237.316C216.764 236.622 216.564 235.945 216.195 235.357Z"
      fill="white"
    />
    <path
      d="M178.021 178.213C173.017 178.213 173.007 185.988 178.021 185.988C183.035 185.988 183.025 178.213 178.021 178.213Z"
      fill="white"
    />
    <path
      d="M197.722 204.004C192.718 204.004 192.708 211.779 197.722 211.779C202.736 211.779 202.736 204.004 197.722 204.004Z"
      fill="white"
    />
    <path
      d="M177.534 228.11C172.53 228.11 172.52 235.885 177.534 235.885C182.548 235.885 182.538 228.11 177.534 228.11Z"
      fill="white"
    />
    <path
      d="M228.142 193.539C223.138 193.539 223.127 201.314 228.142 201.314C233.156 201.314 233.156 193.539 228.142 193.539Z"
      fill="white"
    />
    <path
      d="M170.347 201.202C165.344 201.202 165.344 208.977 170.347 208.977C175.351 208.977 175.362 201.202 170.347 201.202Z"
      fill="white"
    />
    <path
      d="M226.193 219.087C221.189 219.087 221.179 226.862 226.193 226.862C231.207 226.862 231.207 219.087 226.193 219.087Z"
      fill="white"
    />
    <path
      d="M194.565 181.42C191.226 181.42 191.216 186.607 194.565 186.607C197.915 186.607 197.925 181.42 194.565 181.42Z"
      fill="white"
    />
    <path
      d="M196.23 243.396C196.174 243.239 196.084 243.097 195.966 242.98C195.849 242.862 195.706 242.772 195.55 242.716C195.397 242.634 195.225 242.595 195.053 242.604H194.707C194.488 242.663 194.289 242.778 194.129 242.939C194.068 243.031 193.997 243.112 193.926 243.203C193.812 243.404 193.753 243.632 193.753 243.863V244.35C193.746 244.526 193.784 244.701 193.865 244.858C193.917 245.016 194.008 245.159 194.129 245.274C194.245 245.393 194.388 245.483 194.545 245.538C194.702 245.618 194.877 245.657 195.053 245.649H195.398C195.613 245.588 195.809 245.473 195.966 245.314L196.169 245.05C196.283 244.849 196.342 244.622 196.342 244.391V243.914C196.351 243.734 196.312 243.556 196.23 243.396Z"
      fill="white"
    />
    <path
      d="M183.37 213.9C179.198 213.9 179.188 220.386 183.37 220.386C187.552 220.386 187.552 213.9 183.37 213.9Z"
      fill="white"
    />
    <path
      d="M213.059 212.438C208.887 212.438 208.877 218.914 213.059 218.914C217.24 218.914 217.21 212.438 213.059 212.438Z"
      fill="white"
    />
    <path
      d="M162.928 174.153C159.599 174.153 159.588 179.339 162.928 179.339C166.267 179.339 166.277 174.153 162.928 174.153Z"
      fill="white"
    />
    <path
      d="M230.09 175.127C226.751 175.127 226.741 180.314 230.09 180.314C233.44 180.314 233.45 175.127 230.09 175.127Z"
      fill="white"
    />
    <path
      d="M191.764 223.827C196.839 218.295 223.686 216.539 238.647 217.564C253.608 218.589 261.342 225.004 263.677 232.952C266.011 240.899 268.437 265.34 248.979 273.836C229.522 282.331 204.32 281.458 195.773 269.36C187.227 257.261 186.658 229.358 191.764 223.827Z"
      fill="#231F20"
    />
    <path
      d="M222.041 279.946C210.694 279.946 200.412 276.789 195.357 269.644C186.476 257.088 186.171 229.155 191.399 223.482L191.764 223.827L191.399 223.482C196.91 217.513 225.107 216.133 238.677 217.057C252.41 218.011 261.464 223.603 264.154 232.809C266.509 240.848 268.813 265.726 249.182 274.303C240.603 277.976 231.374 279.895 222.041 279.946ZM229.664 217.787C214.703 217.787 196.169 219.817 192.109 224.172C187.186 229.501 187.684 257.088 196.169 269.065C203.274 279.124 226.112 283.275 248.756 273.369C267.727 265.097 265.453 240.889 263.169 233.094C260.601 224.324 251.872 218.985 238.586 218.072C235.906 217.879 232.871 217.787 229.664 217.787Z"
      fill="#231F20"
    />
    <path
      d="M272.588 223.035C272.588 223.035 270.619 242.036 278.8 254.307C286.981 266.579 300.43 261.138 309.25 254.429C318.071 247.72 321.897 226.313 320.415 215.646C318.933 204.978 314.843 203.466 304.774 204.298C294.705 205.13 277.288 210.632 272.588 223.035Z"
      fill="#231F20"
    />
    <path
      d="M291.64 262.113C290.739 262.114 289.839 262.039 288.95 261.889C284.697 261.179 281.145 258.712 278.384 254.571C270.193 242.3 272.071 223.157 272.091 222.964C272.086 222.924 272.086 222.883 272.091 222.842C276.831 210.368 294.188 204.572 304.693 203.78C314.843 202.989 319.289 204.44 320.872 215.565C322.455 226.689 318.416 248.116 309.555 254.825C305.799 257.687 298.806 262.113 291.64 262.113ZM273.086 223.137C272.974 224.355 271.472 242.422 279.227 254.013C281.825 257.91 285.154 260.235 289.113 260.895C296.786 262.194 304.845 257.139 308.966 254.023C312.853 251.069 316.142 244.817 318.233 236.392C320.04 229.105 320.679 221.167 319.898 215.707C318.436 205.465 314.823 203.994 304.794 204.785C294.563 205.597 277.684 211.149 273.086 223.137Z"
      fill="#231F20"
    />
    <path
      d="M276.963 226.456C276.963 226.456 274.121 223.664 266.813 224.7C259.505 225.735 256.115 229.775 256.115 229.775L258.318 235.601C258.318 235.601 267.453 228.323 276.253 233.266L276.963 226.456Z"
      fill="#231F20"
    />
    <path
      d="M258.328 236.057C258.281 236.067 258.232 236.067 258.186 236.057C258.11 236.037 258.04 235.998 257.981 235.946C257.923 235.893 257.878 235.827 257.851 235.753L255.658 229.917C255.623 229.833 255.612 229.741 255.626 229.651C255.641 229.562 255.68 229.478 255.739 229.409C255.882 229.247 259.353 225.268 266.752 224.223C274.151 223.177 277.196 225.989 277.318 226.11C277.372 226.165 277.413 226.23 277.439 226.302C277.466 226.374 277.476 226.45 277.471 226.527L276.76 233.287C276.753 233.369 276.725 233.449 276.679 233.518C276.632 233.587 276.57 233.644 276.496 233.682C276.421 233.722 276.338 233.743 276.253 233.743C276.168 233.743 276.084 233.722 276.009 233.682C267.645 228.973 258.754 235.905 258.642 235.976C258.549 236.036 258.439 236.065 258.328 236.057ZM256.714 229.836L258.561 234.758C260.652 233.317 268.325 228.668 275.816 232.414L276.415 226.669C275.704 226.141 272.822 224.355 266.874 225.197C263.081 225.626 259.523 227.251 256.714 229.836Z"
      fill="#231F20"
    />
    <path
      d="M200.148 222.02C200.148 222.02 137.634 223.512 128.976 223.37C120.318 223.228 113.112 238.382 117.375 241.183C121.638 243.985 124.48 232.272 130.011 231.815C135.543 231.358 196.91 232.941 196.91 232.941L200.148 222.02Z"
      fill="#231F20"
    />
    <path
      d="M118.694 242.147C118.123 242.14 117.567 241.96 117.101 241.63C115.507 240.615 115.172 238.108 116.177 234.839C117.72 229.846 122.653 222.883 128.854 222.883H128.986C137.543 223.045 199.508 221.543 200.138 221.533C200.217 221.532 200.295 221.549 200.367 221.583C200.439 221.616 200.503 221.665 200.554 221.726C200.599 221.792 200.63 221.866 200.644 221.945C200.658 222.024 200.655 222.105 200.635 222.182L197.417 233.084C197.381 233.187 197.314 233.278 197.225 233.343C197.136 233.408 197.03 233.445 196.92 233.449C196.301 233.449 135.523 231.896 130.052 232.343C127.626 232.535 125.637 235.266 123.881 237.671C122.277 239.884 120.612 242.147 118.694 242.147ZM128.844 223.877C123.769 223.877 118.806 229.693 117.131 235.134C116.278 237.895 116.471 240.006 117.649 240.777C119.384 241.924 120.836 240.107 123.059 237.062C124.946 234.484 127.119 231.551 129.961 231.317C135.31 230.881 190.861 232.272 196.545 232.414L199.458 222.548C192.586 222.71 137.045 224.02 128.956 223.888L128.844 223.877Z"
      fill="#231F20"
    />
  </svg>
